<?xml version="1.0" standalone="no"?>
<!DOCTYPE svg PUBLIC "-//W3C//DTD SVG 20010904//EN"
 "http://www.w3.org/TR/2001/REC-SVG-20010904/DTD/svg10.dtd">
<svg version="1.0" xmlns="http://www.w3.org/2000/svg"
 width="1800.000000pt" height="1800.000000pt" viewBox="0 0 1800.000000 1800.000000"
 preserveAspectRatio="xMidYMid meet">

<g transform="translate(0.000000,1800.000000) scale(0.100000,-0.100000)"
fill="#000000" stroke="none">
<path d="M10 17998 c0 -2 -1 -4050 -3 -8996 l-2 -8992 8998 0 8997 0 0 8995 0
8995 -8995 0 c-4947 0 -8995 -1 -8995 -2z m7744 -6558 c399 -102 983 -383
1953 -936 18 -11 33 -25 33 -32 0 -16 -84 -55 -165 -77 -94 -26 -284 -31 -386
-11 -101 21 -236 73 -342 133 -125 70 -384 197 -485 238 -120 47 -262 83 -384
96 -217 24 -447 -43 -683 -198 -106 -70 -286 -213 -281 -222 3 -4 26 -17 52
-30 54 -28 153 -33 219 -12 22 7 114 48 205 91 91 43 194 88 230 100 89 30
252 38 337 17 78 -21 195 -77 191 -93 -2 -6 -131 -77 -288 -156 -157 -80 -391
-199 -520 -266 -493 -254 -725 -326 -1045 -325 -382 2 -763 122 -1398 441
-196 98 -267 139 -265 150 3 13 23 16 118 18 349 7 729 122 1205 364 205 104
290 153 725 413 399 239 539 311 640 331 60 11 223 -5 334 -34z m3969 -579
c290 -59 602 -177 1022 -388 271 -136 317 -162 312 -177 -2 -7 -60 -13 -168
-17 -218 -9 -330 -30 -579 -111 -349 -113 -666 -275 -1363 -695 -501 -302
-580 -330 -808 -287 -245 45 -539 159 -1004 389 -445 220 -1090 578 -1090 605
0 8 28 26 65 41 221 92 502 75 740 -45 47 -23 182 -92 300 -152 324 -165 521
-225 740 -226 179 0 320 40 504 142 87 48 256 169 341 243 l40 34 -35 21 c-19
12 -59 27 -88 33 -82 17 -163 -6 -373 -106 -99 -47 -214 -95 -256 -106 -87
-22 -215 -25 -293 -7 -57 13 -193 77 -197 93 -2 6 120 72 269 148 150 75 404
204 563 285 377 193 516 247 750 293 132 26 457 21 608 -10z m-4786 -2822 c38
-14 81 -56 104 -101 14 -27 19 -58 19 -113 0 -88 -7 -99 -97 -140 l-53 -24 0
85 c0 129 -35 186 -105 168 -51 -13 -60 -37 -60 -158 0 -66 6 -127 14 -151 7
-22 71 -150 141 -285 71 -135 135 -269 144 -299 12 -39 16 -97 16 -205 0 -170
-8 -197 -72 -249 -73 -59 -247 -60 -324 -2 -60 46 -74 87 -74 223 0 140 4 148
92 186 l57 25 3 -145 c3 -146 3 -146 31 -170 35 -30 68 -31 103 -1 25 22 28
31 32 109 9 168 -2 200 -185 543 -56 105 -108 214 -117 244 -24 83 -22 309 3
359 23 44 66 87 101 101 34 13 192 14 227 0z m2582 -9 c73 -37 111 -107 111
-204 0 -78 -15 -100 -94 -137 l-61 -29 -3 97 c-2 107 -11 135 -49 152 -37 17
-52 14 -84 -18 -28 -29 -29 -32 -29 -133 0 -133 15 -173 159 -443 156 -293
156 -293 156 -497 l0 -166 -30 -43 c-47 -66 -91 -84 -205 -84 -107 1 -137 12
-188 70 -42 47 -47 69 -47 201 0 130 4 139 93 179 30 14 56 25 58 25 2 0 4
-65 4 -144 0 -138 1 -144 25 -170 32 -34 77 -35 110 -1 24 23 25 30 25 149 0
157 -8 179 -159 461 -150 281 -155 295 -156 471 0 139 0 141 30 189 45 72 95
95 207 95 69 0 98 -4 127 -20z m-6786 -12 c22 -20 33 -63 97 -378 98 -479 106
-511 113 -480 4 14 41 201 82 415 42 215 81 403 87 418 13 34 43 47 109 47
l49 0 0 -750 0 -750 -75 0 -75 0 0 377 c0 207 -2 374 -5 371 -5 -5 -35 -135
-89 -383 l-22 -100 -42 -3 c-90 -7 -101 12 -167 303 -15 66 -31 134 -35 150
-5 17 -9 -132 -9 -342 l-1 -373 -75 0 -75 0 0 750 0 750 54 0 c43 0 60 -5 79
-22z m1777 17 c0 -17 -67 -136 -79 -141 -9 -4 -59 -10 -111 -13 l-95 -6 -3
-237 -2 -238 114 0 115 0 -25 -57 c-34 -79 -53 -93 -123 -93 -31 0 -62 -5 -69
-12 -9 -9 -12 -85 -12 -280 l0 -268 159 0 160 0 -25 -57 c-41 -95 -37 -93
-260 -93 l-194 0 0 730 c0 717 0 730 20 750 19 19 33 20 225 20 113 0 205 -2
205 -5z m1158 -25 c26 -14 54 -42 68 -66 l24 -42 -2 -624 -3 -625 -29 -37
c-50 -66 -86 -76 -278 -76 l-168 0 0 751 0 751 173 -4 c162 -3 175 -4 215 -28z
m2712 25 c0 -18 -65 -135 -78 -141 -10 -4 -60 -10 -112 -13 l-95 -6 -3 -237
-2 -238 115 0 115 0 -25 -57 c-34 -78 -54 -93 -124 -93 -31 0 -62 -5 -69 -12
-9 -9 -12 -85 -12 -280 l0 -268 160 0 160 0 -25 -57 c-41 -94 -37 -93 -261
-93 l-194 0 0 730 c0 717 0 730 20 750 19 19 33 20 225 20 113 0 205 -2 205
-5z m2590 -4 c0 -18 -49 -117 -64 -130 -9 -8 -56 -16 -113 -20 l-98 -6 -3
-667 -2 -668 -68 0 c-40 0 -73 5 -80 12 -9 9 -12 172 -12 670 l0 658 -105 0
-105 0 0 64 c0 101 -19 96 341 96 170 0 309 -4 309 -9z m973 -2 c47 -13 106
-63 123 -106 21 -50 20 -593 -1 -633 -9 -17 -20 -30 -26 -30 -5 0 1 -14 13
-31 23 -30 23 -35 26 -360 l3 -329 -75 0 -75 0 -3 299 c-4 351 0 341 -100 341
l-58 0 0 -320 0 -320 -80 0 -80 0 0 743 c0 409 3 747 7 750 10 11 285 8 326
-4z m1138 -8 l24 -19 3 -731 2 -731 -68 0 c-40 0 -73 5 -80 12 -9 9 -12 189
-12 750 l0 738 54 0 c38 0 61 -6 77 -19z m813 -681 c45 -17 66 -65 66 -153 0
-69 -3 -81 -25 -102 -13 -14 -33 -25 -45 -25 -19 0 -20 6 -20 100 0 89 -2 100
-20 110 -14 8 -26 8 -40 0 -19 -10 -20 -21 -20 -335 l0 -325 25 -6 c41 -10 55
10 55 80 0 85 6 101 46 120 19 9 37 16 39 16 3 0 5 -45 5 -100 0 -107 -14
-161 -47 -178 -66 -35 -162 -20 -194 31 -18 30 -19 49 -17 373 3 326 4 343 23
364 11 12 29 26 40 31 28 11 99 11 129 -1z m699 -1 c57 -29 57 -24 57 -405 l0
-350 -31 -30 c-27 -26 -37 -29 -99 -29 -70 0 -98 13 -121 57 -14 25 -12 693 1
718 6 11 23 26 38 34 32 18 124 21 155 5z m531 -7 c5 -8 68 -307 88 -415 6
-32 12 -56 14 -54 3 2 25 106 49 231 24 125 47 231 50 236 3 6 24 10 46 10
l39 0 0 -405 0 -405 -45 0 -45 0 -2 193 -3 192 -18 -85 c-28 -138 -36 -160
-56 -160 -40 0 -60 33 -85 135 l-24 100 -1 -187 -1 -188 -45 0 -45 0 0 405 0
405 39 0 c22 0 42 -4 45 -8z m-1656 -754 l3 -48 -33 0 c-44 0 -58 15 -58 63
l0 38 43 -3 42 -3 3 -47z"/>
<path d="M5430 7285 l0 -595 64 0 c49 0 69 5 90 21 l26 20 0 555 c0 647 10
594 -110 594 l-70 0 0 -595z"/>
<path d="M11770 7610 l0 -280 54 0 c38 0 61 6 77 19 24 19 24 21 27 253 3 226
2 235 -18 261 -19 24 -28 27 -81 27 l-59 0 0 -280z"/>
<path d="M14492 7264 c-22 -15 -22 -16 -22 -328 0 -333 0 -336 50 -336 50 0
50 3 50 336 0 312 0 313 -22 328 -12 9 -25 16 -28 16 -3 0 -16 -7 -28 -16z"/>
</g>
</svg>
